<?xml version="1.0" encoding="utf-8"?>
<!-- Generator: Adobe Illustrator 25.2.0, SVG Export Plug-In . SVG Version: 6.00 Build 0)  -->
<svg version="1.1" id="Layer_1" xmlns="http://www.w3.org/2000/svg" xmlns:xlink="http://www.w3.org/1999/xlink" x="0px" y="0px"
	 viewBox="0 0 512 512" style="enable-background:new 0 0 512 512;" xml:space="preserve">
<style type="text/css">
	.st0{fill:#11ABA0;}
</style>
<g id="Page-1">
	<g id="_x30_15---Tax-Money-Bag">
		<path id="Shape" class="st0" d="M64.1,441.6c10.5,41.6,48,70.7,91,70.4h201.9c42.9,0.3,80.5-28.8,91-70.4
			c19.1-78.3-29.1-176.6-83.8-247.1c10.2-3.5,17.6-12.3,19.4-23c15.9,2.4,29.3,13,35.2,28c1.8,4.4,6.7,6.5,11.1,4.7
			s6.5-6.7,4.7-11.1c-7.8-19.6-25.1-33.9-45.8-37.9c17.8-11.8,28.7-31.5,29.4-52.8c0-4.7-3.8-8.5-8.5-8.5s-8.5,3.8-8.5,8.5
			c-1,17.7-11.1,33.7-26.7,42.2c-5.5-5.2-12.7-8-20.3-8.1h-5.8l26.4-41.4c6.7-10.5,7.1-23.9,1.1-34.8c-6-10.9-17.5-17.7-30-17.7
			h-9.9c2.7-10.2,0.4-21.1-6-29.4S313.5,0,302.9,0h-93.9c-10.6,0-20.5,4.9-27,13.2s-8.7,19.2-6,29.4h-9.9c-12.5,0-24,6.8-30,17.7
			c-6,10.9-5.6,24.3,1.1,34.8l26.4,41.4h-5.8c-14.5,0-26.9,10.4-29.4,24.7c-2.5,14.3,5.7,28.3,19.4,33.2
			C93.2,264.9,45,363.3,64.1,441.6z M151.1,68.6c3-5.5,8.8-8.9,15-8.9h16.6l22.7,54.5c1.2,2.8,3.8,4.8,6.8,5.2c3,0.4,6-0.9,7.9-3.3
			c1.9-2.4,2.3-5.6,1.1-8.5l-27.9-67c-2.2-5.3-1.6-11.3,1.6-16s8.5-7.6,14.2-7.6h93.9c5.7,0,11,2.9,14.2,7.6s3.7,10.8,1.6,16
			l-27.9,67c-1.8,4.3,0.2,9.3,4.6,11.2c4.3,1.8,9.3-0.2,11.2-4.6l22.7-54.5h16.6c6.2,0,12,3.3,15,8.8c3,5.5,2.8,12.1-0.5,17.4
			l-32.2,50.6H183.9L151.7,86C148.3,80.7,148.1,74.1,151.1,68.6L151.1,68.6z M168.2,196.3h28.1c4.7,0,8.5-3.8,8.5-8.5
			c0-4.7-3.8-8.5-8.5-8.5h-38.4c-7.1,0-12.8-5.7-12.8-12.8s5.7-12.8,12.8-12.8h196.3c7.1,0,12.8,5.7,12.8,12.8s-5.7,12.8-12.8,12.8
			H247.5c-4.7,0-8.5,3.8-8.5,8.5c0,4.7,3.8,8.5,8.5,8.5h96.3c54.9,67.7,106,165.7,87.6,241.2c-8.6,34-39.3,57.7-74.4,57.4H155.1
			c-35.1,0.3-65.8-23.4-74.4-57.4C62.2,361.9,113.3,264,168.2,196.3L168.2,196.3z"/>
		<path id="Shape_1_" class="st0" d="M128,349.9h25.6v68.3c0,4.7,3.8,8.5,8.5,8.5c4.7,0,8.5-3.8,8.5-8.5v-68.3h25.6
			c4.7,0,8.5-3.8,8.5-8.5s-3.8-8.5-8.5-8.5H128c-4.7,0-8.5,3.8-8.5,8.5S123.3,349.9,128,349.9z"/>
		<path id="Shape_2_" class="st0" d="M319.5,425.2c1.9,1.3,4.2,1.7,6.4,1.3c2.2-0.4,4.2-1.8,5.4-3.6l18.5-27.8l18.5,27.8
			c2.6,3.9,7.9,5,11.8,2.4c3.9-2.6,5-7.9,2.4-11.8l-22.5-33.6l22.4-33.7c1.7-2.5,1.9-5.8,0.6-8.5c-1.4-2.7-4.1-4.5-7.1-4.7
			c-3-0.2-6,1.2-7.7,3.8l-18.5,27.8l-18.5-27.8c-2.6-3.9-7.9-5-11.8-2.4c-3.9,2.6-5,7.9-2.4,11.8l22.5,33.6l-22.4,33.7
			C314.6,417.3,315.6,422.6,319.5,425.2L319.5,425.2z"/>
		<path id="Shape_3_" class="st0" d="M218.4,425.9c2.1,0.9,4.4,1,6.5,0.2c2.1-0.8,3.8-2.4,4.7-4.5l9.1-20.5h34.4l9.1,20.5
			c1.2,2.8,3.9,4.7,6.9,5s6-1,7.8-3.5c1.8-2.5,2.1-5.7,0.9-8.5l-11.3-25.3l-0.1-0.2l-22.8-51.2c-1.4-3.1-4.4-5.1-7.8-5.1
			s-6.4,2-7.8,5.1l-22.8,51.2l-0.1,0.2l-11.3,25.3c-0.9,2.1-1,4.4-0.2,6.5C214.7,423.3,216.3,425,218.4,425.9L218.4,425.9z
			 M256,362.3l9.6,21.7h-19.3L256,362.3z"/>
	</g>
</g>
</svg>
