<?xml version="1.0" encoding="utf-8"?>
<!-- Generator: Adobe Illustrator 23.0.1, SVG Export Plug-In . SVG Version: 6.00 Build 0)  -->
<svg version="1.1" id="Layer_1" xmlns="http://www.w3.org/2000/svg" xmlns:xlink="http://www.w3.org/1999/xlink" x="0px" y="0px"
	 viewBox="0 0 480 480" style="enable-background:new 0 0 480 480;" xml:space="preserve">
<style type="text/css">
	.st0{fill:#FFFFFF;}
</style>
<path class="st0" d="M240,128c-66.2,0-120,46.7-120,104s53.8,104,120,104c12.5,0,24.9-1.7,36.9-5.1l72.9,20.8
	c0.7,0.2,1.4,0.3,2.2,0.3c2.8,0,5.4-1.4,6.8-3.8c1.5-2.4,1.6-5.3,0.4-7.8l-23.1-46.1c15.2-17.2,23.7-39.3,23.9-62.3
	C360,174.7,306.2,128,240,128z M319.3,296.6l17.4,34.8l-57.6-16.5c-0.7-0.2-1.5-0.3-2.2-0.3c-0.8,0-1.6,0.1-2.3,0.3
	c-11.2,3.4-22.9,5.1-34.6,5.1c-57.3,0-104-39.5-104-88s46.7-88,104-88s104,39.5,104,88c-0.3,20.8-8.6,40.7-23.3,55.4
	C318.4,289.9,317.8,293.5,319.3,296.6z"/>
<path class="st0" d="M200,232c0,8.8-7.2,16-16,16s-16-7.2-16-16s7.2-16,16-16S200,223.2,200,232z"/>
<path class="st0" d="M256,232c0,8.8-7.2,16-16,16s-16-7.2-16-16s7.2-16,16-16S256,223.2,256,232z"/>
<path class="st0" d="M312,232c0,8.8-7.2,16-16,16s-16-7.2-16-16s7.2-16,16-16S312,223.2,312,232z"/>
</svg>
