<?xml version="1.0" encoding="utf-8"?>
<!-- Generator: Adobe Illustrator 23.0.1, SVG Export Plug-In . SVG Version: 6.00 Build 0)  -->
<svg version="1.1" id="Layer_1" xmlns="http://www.w3.org/2000/svg" xmlns:xlink="http://www.w3.org/1999/xlink" x="0px" y="0px"
	 viewBox="0 0 480 480" style="enable-background:new 0 0 480 480;" xml:space="preserve">
<style type="text/css">
	.st0{fill:#FFFFFF;}
</style>
<path class="st0" d="M345.2,269.3l-67.9-12c-3.4-0.6-6.9,1.1-8.5,4.2L252.3,293c-29.1-12.9-52.4-36.2-65.3-65.3l31.5-16.5
	c3.1-1.6,4.8-5,4.2-8.5l-12-67.9c-0.4-2.1-1.6-4-3.4-5.2c-17.2-11.6-39.3-12.7-57.6-3c-18.3,9.7-29.7,28.7-29.7,49.4
	c0.1,101.6,82.4,183.9,184,184c20.7,0,39.7-11.4,49.4-29.7c9.7-18.3,8.5-40.5-3.1-57.6C349.2,270.9,347.3,269.6,345.2,269.3z
	 M304,344c-92.7-0.1-167.9-75.3-168-168c0-14.2,7.5-27.4,19.8-34.5c12.3-7.2,27.4-7.3,39.8-0.3l10.3,58.6l-32.8,17.1
	c-3.6,1.9-5.2,6.1-3.8,9.9c14.6,38.7,45.2,69.2,83.8,83.9c3.8,1.4,8.1-0.2,9.9-3.8l17.1-32.8l58.6,10.3c7,12.4,6.8,27.5-0.4,39.8
	C331.3,336.5,318.2,344,304,344z"/>
</svg>
